<svg width="30" height="29" viewBox="0 0 30 29" fill="none" xmlns="http://www.w3.org/2000/svg">
<path d="M1.62315 13.3316L1.70772 12.6426L0.644336 12.8552L0.642929 12.8666L1.62315 13.3316ZM2.13353 12.5576L2.01561 13.5167L2.55369 13.7713L2.48569 14.3251L0 13.0661L0.0690297 12.5048L2.78525 11.8867L2.71731 12.4404L2.13353 12.5576Z" fill="white"/>
<path d="M2.16904 10.3068L2.06531 10.5952L3.09557 10.964L2.9087 11.4839L0.441864 10.6007L0.628669 10.0808L1.6368 10.4418L1.71802 10.2157L0.956934 9.16759L1.18525 8.53215L2.02061 9.81556L3.67694 9.34584L3.44927 9.97964L2.16904 10.3068Z" fill="white"/>
<path d="M3.40347 7.93699L3.77661 7.35129L2.72484 7.08726L2.71871 7.09671L3.40347 7.93699ZM4.19759 7.4572L3.67809 8.27268L4.05446 8.7333L3.7546 9.20425L2.05225 7.00106L2.35636 6.52391L5.07505 7.13097L4.77513 7.60189L4.19759 7.4572Z" fill="white"/>
<path d="M4.18947 4.86034L5.46694 6.14118L5.726 5.88361C5.86644 5.74402 5.9318 5.58965 5.92186 5.42062C5.91196 5.25159 5.83449 5.09438 5.68998 4.94947L5.38164 4.64035C5.23875 4.49698 5.08252 4.42003 4.91333 4.40926C4.74399 4.39864 4.58896 4.46307 4.44853 4.60266L4.18947 4.86034ZM5.36057 6.81729L3.51163 4.96339L4.18293 4.29629C4.42191 4.05871 4.69102 3.93541 4.99015 3.92631C5.2894 3.9171 5.55206 4.02585 5.77809 4.25243L6.08411 4.55927C6.31098 4.78682 6.41873 5.04944 6.40739 5.34721C6.39599 5.64495 6.27097 5.91255 6.03187 6.15016L5.36057 6.81729Z" fill="white"/>
<path d="M8.14764 3.08826L7.18683 3.70515L7.59083 4.33222L8.71413 3.61093L8.93335 3.95089L7.34455 4.97097L5.92685 2.77077L7.51245 1.75283L7.73156 2.09278L6.61134 2.81214L6.9676 3.36507L7.92859 2.74818L8.14764 3.08826Z" fill="white"/>
<path d="M9.19184 0.988174L10.4755 2.59038L10.4864 2.58673L10.5401 0.533931L11.2258 0.302845L12.064 2.78142L11.5399 2.95799L11.2899 2.21924L10.9701 1.10778L10.9587 1.10969L10.8791 3.18068L10.5274 3.29912L9.21257 1.70554L9.20225 1.71087L9.62053 2.78162L9.87027 3.52052L9.34603 3.6971L8.508 1.21856L9.19184 0.988174Z" fill="white"/>
<path d="M13.3498 2.66865L12.8007 2.73556L12.4836 0.138786L13.0327 0.071871L13.3498 2.66865Z" fill="white"/>
<path d="M14.8065 1.63579L15.5011 1.66686L15.2066 0.625046L15.1953 0.624461L14.8065 1.63579ZM15.619 2.08401L14.6517 2.04062L14.439 2.59583L13.8806 2.57076L14.9466 -9.05991e-06L15.5124 0.0254166L16.3393 2.68106L15.781 2.6561L15.619 2.08401Z" fill="white"/>
<path d="M20.165 0.354251L20.7111 0.565002L20.7107 0.576472L20.0525 0.823152L19.6407 0.664306L20.165 0.354251ZM19.6049 2.9639C19.6411 2.87004 19.6353 2.78115 19.5874 2.69712C19.5393 2.61309 19.4372 2.51203 19.2811 2.39394C19.0074 2.19194 18.8143 2.00316 18.7023 1.82764C18.5903 1.65211 18.573 1.46427 18.6504 1.26429C18.7279 1.0643 18.8811 0.935682 19.1099 0.878247C19.3386 0.820782 19.5926 0.845974 19.8718 0.953763C20.1546 1.06287 20.3573 1.22315 20.4799 1.43425C20.6026 1.64527 20.6206 1.85423 20.5337 2.06086L20.5263 2.06949L20.0262 1.87644C20.0699 1.76356 20.0655 1.65685 20.0132 1.55635C19.9606 1.45587 19.8626 1.37787 19.7188 1.32242C19.5809 1.26914 19.463 1.25706 19.3652 1.28603C19.2673 1.31499 19.2008 1.37468 19.1658 1.46524C19.1337 1.54783 19.1478 1.63128 19.208 1.71546C19.2681 1.79987 19.3856 1.90979 19.5606 2.04523C19.8154 2.22977 19.9921 2.41167 20.0906 2.59085C20.1891 2.77029 20.1995 2.95989 20.1221 3.15988C20.0411 3.36861 19.8904 3.49995 19.6699 3.55349C19.4493 3.60704 19.1966 3.5788 18.9114 3.46873C18.631 3.36047 18.4131 3.19771 18.2578 2.98031C18.1022 2.76295 18.0752 2.53201 18.1768 2.28732L18.1842 2.27869L18.6861 2.47244C18.6299 2.61768 18.6354 2.74215 18.7028 2.84593C18.7703 2.94974 18.8878 3.03386 19.0549 3.09843C19.1951 3.15256 19.313 3.16649 19.4084 3.14051C19.5037 3.11438 19.5693 3.05563 19.6049 2.9639Z" fill="white"/>
<path d="M21.0787 4.05798L22.1094 4.72394L21.8894 5.06328L20.3943 4.09733L21.8184 1.90129L22.2828 2.20128L21.0787 4.05798Z" fill="white"/>
<path d="M23.4553 5.1634L23.9487 5.65252L24.4323 4.68349L24.4241 4.67548L23.4553 5.1634ZM23.7736 6.85391C23.6804 6.85084 23.6069 6.85414 23.5534 6.86336C23.4996 6.87261 23.452 6.898 23.4105 6.93973C23.3878 6.96266 23.3749 6.99078 23.3719 7.02414C23.369 7.05746 23.3909 7.09728 23.4375 7.14351C23.4625 7.16832 23.4873 7.18772 23.5117 7.20177C23.536 7.21584 23.5619 7.22956 23.5891 7.24326L23.4409 7.48631C23.3926 7.47045 23.3433 7.44801 23.2927 7.41916C23.2423 7.39019 23.1897 7.34871 23.1351 7.29443C23.0382 7.19858 22.9826 7.09565 22.9682 6.98584C22.9536 6.87615 22.989 6.77825 23.0744 6.69246C23.1395 6.62695 23.222 6.58511 23.322 6.56703C23.422 6.54871 23.5387 6.5603 23.6723 6.60144L23.7736 6.85391ZM23.7551 6.04046L23.0681 5.35949L22.5368 5.62791L22.1402 5.23479L24.6603 4.04615L25.0623 4.44462L23.8866 6.96574L23.4899 6.57259L23.7551 6.04046Z" fill="white"/>
<path d="M25.5118 8.19621C25.5967 8.14184 25.6445 8.06665 25.6554 7.97045C25.6664 7.87436 25.6436 7.73263 25.5872 7.54552C25.4856 7.22104 25.4414 6.95511 25.4546 6.74728C25.4679 6.53949 25.5648 6.3778 25.7456 6.26197C25.9263 6.14613 26.126 6.13229 26.3446 6.2206C26.5634 6.30902 26.7537 6.47886 26.9154 6.73025C27.0791 6.98489 27.1482 7.23359 27.1225 7.47635C27.0968 7.71891 26.9879 7.89821 26.7956 8.01395L26.7844 8.01653L26.4948 7.56621C26.5967 7.50081 26.6563 7.41207 26.6733 7.30001C26.6904 7.18795 26.6572 7.06726 26.5739 6.93785C26.4941 6.81373 26.4061 6.73453 26.3099 6.70026C26.2137 6.66597 26.1247 6.67519 26.0429 6.72756C25.9683 6.77543 25.9302 6.85106 25.929 6.95449C25.9278 7.05792 25.9579 7.21583 26.019 7.42837C26.1158 7.72742 26.1509 7.97838 26.1246 8.18108C26.0981 8.3839 25.9945 8.54313 25.8138 8.65896C25.6249 8.78001 25.4257 8.79715 25.216 8.71064C25.0063 8.62409 24.8188 8.45234 24.6537 8.19562C24.4912 7.94315 24.4114 7.68333 24.4143 7.41631C24.4173 7.14918 24.5319 6.94683 24.7586 6.80911L24.7697 6.80641L25.0604 7.2584C24.9291 7.34255 24.8602 7.44633 24.8533 7.56986C24.8464 7.69337 24.8914 7.83047 24.9884 7.98107C25.0695 8.10732 25.1564 8.18804 25.2489 8.22315C25.3414 8.25838 25.429 8.2494 25.5118 8.19621Z" fill="white"/>
<path d="M26.8113 9.98908L26.7061 9.70126L25.6779 10.0754L25.4884 9.55657L27.9506 8.66049L28.1401 9.1794L27.1338 9.5456L27.2162 9.77113L28.473 10.091L28.7048 10.7253L27.2402 10.2718L26.2677 11.6905L26.0368 11.058L26.8113 9.98908Z" fill="white"/>
<path d="M27.3804 12.5994L27.4686 13.2878L28.4466 12.8198L28.4451 12.8085L27.3804 12.5994ZM27.0769 13.4751L26.9543 12.5165L26.3698 12.4024L26.299 11.849L29.0188 12.4569L29.0908 13.0179L26.6111 14.2858L26.5403 13.7324L27.0769 13.4751Z" fill="white"/>
<path d="M1.3688 17.6204L1.59025 18.4606L2.56373 17.7649L2.56103 17.7546L1.3688 17.6204ZM1.34772 18.6324L1.07196 17.5865L0.397546 17.5106L0.306854 17.1659L2.93734 17.5072L3.01358 17.797L0.888023 19.371L0.797097 19.0263L1.34772 18.6324Z" fill="white"/>
<path d="M2.6187 21.2693L2.61114 21.2767C2.40437 21.3787 2.19309 21.3837 1.97762 21.2914C1.76206 21.1991 1.59337 21.0229 1.47102 20.7629C1.34688 20.4986 1.33469 20.2414 1.43476 19.9915C1.53474 19.7418 1.72161 19.5527 1.99558 19.4244L2.39136 19.239C2.66525 19.1107 2.93061 19.0879 3.18759 19.1705C3.44454 19.2532 3.63518 19.4268 3.75952 19.6911C3.88363 19.9554 3.91558 20.197 3.85508 20.4159C3.79455 20.6349 3.65286 20.7939 3.42988 20.8932L3.41924 20.8944L3.27661 20.5909C3.43246 20.518 3.53297 20.4121 3.57837 20.2733C3.62372 20.1345 3.60511 19.9773 3.52268 19.8019C3.43967 19.6253 3.30574 19.5164 3.12125 19.4749C2.93656 19.4334 2.74401 19.4596 2.54363 19.5534L2.14531 19.7401C1.94279 19.835 1.79843 19.9665 1.71237 20.1348C1.62637 20.303 1.62485 20.4754 1.70786 20.652C1.79028 20.8274 1.89935 20.9423 2.03469 20.9964C2.17014 21.0504 2.31723 21.0402 2.47615 20.9659L2.6187 21.2693Z" fill="white"/>
<path d="M3.28284 22.0597L3.78774 22.7674L4.4516 21.7728L4.44541 21.7642L3.28284 22.0597ZM3.62177 23.0137L2.99315 22.1328L2.33554 22.3L2.12839 22.0097L4.70975 21.4L4.88383 21.644L3.45355 23.8669L3.24649 23.5766L3.62177 23.0137Z" fill="white"/>
<path d="M5.66186 22.9973L4.31644 24.3839L4.63541 24.6923C4.80724 24.8583 4.99472 24.9357 5.19779 24.9243C5.40086 24.9129 5.58371 24.8235 5.74642 24.6558L5.98218 24.4129C6.14334 24.2468 6.22623 24.0622 6.23121 23.8593C6.23608 23.6562 6.1526 23.4717 5.98074 23.3056L5.66186 22.9973ZM3.88315 24.3284L5.59236 22.5668L6.16274 23.1182C6.406 23.3533 6.53245 23.6127 6.54242 23.8966C6.55209 24.1805 6.44824 24.4345 6.23075 24.6587L5.99713 24.8995C5.77875 25.1245 5.52773 25.2364 5.24399 25.2348C4.96025 25.2333 4.69679 25.1149 4.45353 24.8799L3.88315 24.3284Z" fill="white"/>
<path d="M7.75914 26.0236L6.77839 25.3601L6.28616 26.0851L7.41678 26.85L7.27004 27.0664L5.84967 26.1054L7.22827 24.0752L8.63232 25.0252L8.48558 25.2413L7.37111 24.4873L6.92513 25.1439L7.90582 25.8075L7.75914 26.0236Z" fill="white"/>
<path d="M9.23968 25.3368L9.24419 27.4926L9.2541 27.4966L10.7745 25.9654L11.1886 26.1352L10.2558 28.4039L9.93206 28.2713L10.3012 27.3739L10.7132 26.4647L10.7057 26.46L9.18117 27.9637L8.96591 27.8756L8.94055 25.7422L8.93155 25.7404L8.58555 26.6711L8.21657 27.5687L7.89282 27.4361L8.82559 25.1672L9.23968 25.3368Z" fill="white"/>
<path d="M12.1332 27.5673L13.0236 26.464L13.4165 26.5363L12.2349 27.9356L12.0781 28.7836L11.7359 28.7205L11.8965 27.851L11.303 26.147L11.696 26.2193L12.1332 27.5673Z" fill="white"/>
<path d="M16.1095 27.4711C16.0945 27.2472 16.0185 27.0675 15.8814 26.9325C15.7443 26.7978 15.5681 26.7373 15.353 26.7517C15.1498 26.7652 14.9924 26.8477 14.8809 26.9992C14.7693 27.1505 14.7211 27.3384 14.7361 27.5623L14.7652 28.0011C14.7804 28.2274 14.8532 28.4081 14.9838 28.5436C15.1145 28.6791 15.2815 28.7398 15.4847 28.7263C15.7009 28.7122 15.8678 28.6292 15.9854 28.4779C16.1028 28.3266 16.154 28.1372 16.1389 27.9098L16.1095 27.4711ZM16.4879 27.8866C16.5078 28.1858 16.4266 28.4406 16.2442 28.6507C16.0618 28.8609 15.8147 28.9762 15.5027 28.997C15.2014 29.0172 14.9499 28.9346 14.7483 28.75C14.5468 28.5654 14.436 28.3235 14.4161 28.0242L14.3871 27.589C14.3672 27.291 14.4449 27.0365 14.6201 26.8257C14.7952 26.6148 15.0335 26.4995 15.3349 26.4794C15.6468 26.4588 15.9072 26.5409 16.1158 26.7254C16.3246 26.9103 16.4389 27.1522 16.4589 27.4515L16.4879 27.8866Z" fill="white"/>
<path d="M18.5527 27.3222L17.4083 27.607L17.6714 28.6595L17.3318 28.7441L16.7372 26.3645L18.3968 25.9512L18.4602 26.2047L17.14 26.5333L17.345 27.3538L18.4894 27.069L18.5527 27.3222Z" fill="white"/>
<path d="M21.5057 26.5143C21.4536 26.4155 21.3705 26.3536 21.2568 26.3283C21.143 26.303 20.974 26.3203 20.75 26.3803C20.4792 26.4529 20.2478 26.4718 20.0558 26.4366C19.8638 26.4016 19.7252 26.3035 19.6399 26.142C19.5505 25.973 19.5489 25.7931 19.635 25.6026C19.7212 25.4122 19.8803 25.2557 20.1129 25.1333C20.3632 25.0014 20.5968 24.9616 20.8138 25.0136C21.0309 25.0657 21.1821 25.1789 21.2677 25.3535L21.2692 25.364L20.9739 25.5195C20.9068 25.3925 20.8081 25.3129 20.6782 25.2812C20.5482 25.2494 20.4004 25.277 20.235 25.3641C20.0809 25.4452 19.9804 25.5405 19.9331 25.6498C19.8858 25.7593 19.8903 25.8668 19.9464 25.9732C19.9963 26.0676 20.0824 26.1229 20.2048 26.1389C20.3271 26.1552 20.5008 26.1344 20.7261 26.0768C20.997 26.0066 21.2243 25.9933 21.4083 26.0373C21.5922 26.0815 21.7272 26.1848 21.8134 26.3477C21.9057 26.5226 21.9045 26.7027 21.8101 26.8886C21.7153 27.0741 21.5464 27.2311 21.3036 27.359C21.0752 27.4794 20.8422 27.5268 20.6045 27.5016C20.367 27.4763 20.1989 27.3638 20.1001 27.1644L20.0984 27.1538L20.3938 26.9983C20.4674 27.1373 20.5772 27.2148 20.7235 27.2304C20.8696 27.246 21.0224 27.212 21.1815 27.128C21.3376 27.046 21.4446 26.9498 21.5028 26.8396C21.5611 26.7295 21.5621 26.621 21.5057 26.5143Z" fill="white"/>
<path d="M22.9784 26.2796L22.6908 26.4815L21.2773 24.4756L21.5651 24.2737L22.9784 26.2796Z" fill="white"/>
<path d="M23.7338 25.359L24.6475 24.5461L24.8214 24.741L23.6466 25.7863L22.0119 23.9555L22.2731 23.7232L23.7338 25.359Z" fill="white"/>
<path d="M25.335 22.3759L24.5848 23.2911L25.2638 23.8458L26.1288 22.7906L26.3313 22.956L25.2446 24.2815L23.3433 22.7284L24.4175 21.418L24.6199 21.5832L23.7672 22.6234L24.3823 23.1257L25.1327 22.2106L25.335 22.3759Z" fill="white"/>
<path d="M26.8535 20.8747C26.7563 20.8195 26.6528 20.8119 26.5433 20.8518C26.4339 20.8916 26.3009 20.9971 26.1445 21.168C25.9554 21.3749 25.7706 21.5152 25.59 21.5887C25.4093 21.6623 25.2396 21.654 25.0807 21.5641C24.9141 21.4695 24.8155 21.3189 24.7853 21.1121C24.7551 20.9053 24.805 20.6879 24.9348 20.4597C25.0746 20.2141 25.2499 20.0549 25.4608 19.982C25.6717 19.9093 25.8603 19.9234 26.0266 20.0246L26.0337 20.0327L25.8687 20.3225C25.7436 20.2515 25.6175 20.2375 25.4909 20.2805C25.3641 20.3235 25.2546 20.4263 25.1622 20.5887C25.0763 20.7397 25.0429 20.874 25.0619 20.9916C25.0811 21.1092 25.143 21.1976 25.2478 21.257C25.3406 21.3097 25.4431 21.3099 25.5548 21.2578C25.6667 21.2057 25.8019 21.0948 25.9605 20.9251C26.1508 20.7204 26.3353 20.587 26.5141 20.5252C26.6929 20.4634 26.8625 20.478 27.0228 20.569C27.195 20.6666 27.2913 20.8191 27.3117 21.0264C27.3322 21.2338 27.2746 21.4566 27.139 21.695C27.0115 21.9192 26.8407 22.0844 26.6268 22.1908C26.413 22.2973 26.2107 22.293 26.0199 22.178L26.0128 22.17L26.1778 21.8801C26.3148 21.9578 26.4491 21.964 26.5806 21.8986C26.7123 21.8332 26.8225 21.7225 26.9115 21.5662C26.9986 21.413 27.037 21.2744 27.0266 21.1501C27.0163 21.026 26.9585 20.9343 26.8535 20.8747Z" fill="white"/>
<path d="M27.9684 19.8831L27.8353 20.2081L25.5614 19.2792L25.6947 18.9542L27.9684 19.8831Z" fill="white"/>
<path d="M27.5184 18.4138L27.7372 17.5729L26.5472 17.7039L26.5445 17.7143L27.5184 18.4138ZM28.0331 17.5415L27.7607 18.5882L28.3116 18.984L28.2217 19.3289L26.0951 17.7461L26.1707 17.4561L28.7961 17.1221L28.7064 17.467L28.0331 17.5415Z" fill="white"/>
<path d="M21.3966 7.29179L20.6082 9.00738H19.0347L19.8292 7.29179H21.3966Z" fill="white"/>
<path d="M10.8822 16.8926L12.4178 12.9792L12.7051 16.8926H10.8822ZM18.7013 11.8459H22.1469L22.514 9.46858H18.1759C17.7364 9.46858 17.3534 9.54067 17.0394 9.68182C16.7159 9.82697 16.4352 10.0797 16.2041 10.4314C15.9796 10.7754 15.8342 11.1281 15.7732 11.4832L15.4607 13.477C15.4403 13.6085 15.4303 13.7101 15.4303 13.7872C15.4303 14.3068 15.6044 14.7321 15.9474 15.0529C16.287 15.3706 16.7218 15.5314 17.2393 15.5314H18.7013C18.9906 15.5314 19.1365 15.5883 19.1375 15.6824C19.1354 15.7034 19.1114 15.86 19.0108 16.4876C18.9824 16.6781 18.8838 16.8971 18.3751 16.8971H15.3101L14.4529 10.6615H11.1687L6.50861 20.889H9.2372L9.89461 19.2739H12.9521L13.103 20.889H15.8588L15.6368 19.2739H18.7723C19.4364 19.2739 20.0043 19.0816 20.4616 18.7018C20.9187 18.3209 21.2027 17.7909 21.3031 17.1273L21.601 15.2274C21.6219 15.0933 21.6314 14.9834 21.6314 14.8888C21.6314 13.7541 21.0111 13.1541 19.8378 13.1541H18.3602C17.9538 13.1541 17.9538 12.9888 17.9538 12.9004C17.9538 12.8224 17.9704 12.6326 18.05 12.1737C18.0667 12.0837 18.1096 11.8459 18.7013 11.8459Z" fill="white"/>
</svg>
