<svg width="12" height="9" viewBox="0 0 12 9" fill="none" xmlns="http://www.w3.org/2000/svg">
<path fill-rule="evenodd" clip-rule="evenodd" d="M3.36836 1.11522C3.66056 0.87441 3.67877 0.467706 3.40906 0.206818C3.13934 -0.0540603 2.68382 -0.070329 2.39164 0.170484L0.231638 1.95069C0.0839809 2.07239 0 2.24365 0 2.42306C0 2.60249 0.0839809 2.77374 0.231638 2.89546L2.39164 4.67565C2.68382 4.9165 3.13934 4.90022 3.40906 4.63931C3.67877 4.37839 3.66056 3.97168 3.36836 3.73091L2.56151 3.06594H7.95696C8.6281 3.06594 9.07862 3.06663 9.42259 3.09714C9.75514 3.12654 9.9095 3.17866 10.0116 3.23763C10.1541 3.31991 10.2756 3.42834 10.3677 3.55563C10.4337 3.64674 10.4921 3.78457 10.5251 4.08139C10.5591 4.38859 10.56 4.79085 10.56 5.39007C10.56 5.9893 10.5591 6.39164 10.5251 6.69875C10.4921 6.99558 10.4338 7.13341 10.3677 7.22452C10.2756 7.35189 10.1541 7.46024 10.0116 7.54261C9.9095 7.60149 9.75514 7.65361 9.42259 7.68309C9.07862 7.71352 8.6281 7.71429 7.95696 7.71429H3.6C3.20236 7.71429 2.88 8.00203 2.88 8.35715C2.88 8.71217 3.20236 9 3.6 9H7.99277C8.61878 9 9.14122 9 9.56477 8.96246C10.0078 8.92329 10.4196 8.838 10.7934 8.62226C11.1071 8.44115 11.3742 8.20269 11.577 7.92266C11.8187 7.58889 11.9141 7.22118 11.958 6.82561C12 6.44753 12 5.98107 12 5.42213V5.3581C12 4.79908 12 4.33262 11.958 3.95454C11.9141 3.55897 11.8187 3.19126 11.5769 2.85757C11.3742 2.57746 11.1071 2.33899 10.7934 2.15791C10.4196 1.94215 10.0078 1.85692 9.56477 1.81769C9.14122 1.78019 8.61878 1.7802 7.99277 1.78021H2.56151L3.36836 1.11522Z"/>
</svg>
