<svg width="30" height="30" viewBox="0 0 30 30" fill="none" xmlns="http://www.w3.org/2000/svg">
<g clip-path="url(#clip0_127_153)">
<path d="M23.5 0.125H6.5C2.97918 0.125 0.125 2.97918 0.125 6.5V23.5C0.125 27.0208 2.97918 29.875 6.5 29.875H23.5C27.0208 29.875 29.875 27.0208 29.875 23.5V6.5C29.875 2.97918 27.0208 0.125 23.5 0.125Z" fill="url(#paint0_radial_127_153)"/>
<path d="M23.5 0.125H6.5C2.97918 0.125 0.125 2.97918 0.125 6.5V23.5C0.125 27.0208 2.97918 29.875 6.5 29.875H23.5C27.0208 29.875 29.875 27.0208 29.875 23.5V6.5C29.875 2.97918 27.0208 0.125 23.5 0.125Z" fill="url(#paint1_radial_127_153)"/>
<path d="M23.5 0.125H6.5C2.97918 0.125 0.125 2.97918 0.125 6.5V23.5C0.125 27.0208 2.97918 29.875 6.5 29.875H23.5C27.0208 29.875 29.875 27.0208 29.875 23.5V6.5C29.875 2.97918 27.0208 0.125 23.5 0.125Z" fill="url(#paint2_radial_127_153)"/>
<path d="M22.4375 9.15625C22.4375 10.0364 21.7239 10.75 20.8438 10.75C19.9636 10.75 19.25 10.0364 19.25 9.15625C19.25 8.27604 19.9636 7.5625 20.8438 7.5625C21.7239 7.5625 22.4375 8.27604 22.4375 9.15625Z" fill="white"/>
<path fill-rule="evenodd" clip-rule="evenodd" d="M15 20.3125C17.934 20.3125 20.3125 17.934 20.3125 15C20.3125 12.066 17.934 9.6875 15 9.6875C12.066 9.6875 9.6875 12.066 9.6875 15C9.6875 17.934 12.066 20.3125 15 20.3125ZM15 18.1875C16.7605 18.1875 18.1875 16.7605 18.1875 15C18.1875 13.2395 16.7605 11.8125 15 11.8125C13.2395 11.8125 11.8125 13.2395 11.8125 15C11.8125 16.7605 13.2395 18.1875 15 18.1875Z" fill="white"/>
<path fill-rule="evenodd" clip-rule="evenodd" d="M4.375 14.575C4.375 11.0047 4.375 9.21947 5.06983 7.85581C5.68103 6.65627 6.65627 5.68103 7.85581 5.06983C9.21947 4.375 11.0047 4.375 14.575 4.375H15.425C18.9953 4.375 20.7805 4.375 22.1441 5.06983C23.3437 5.68103 24.319 6.65627 24.9301 7.85581C25.625 9.21947 25.625 11.0047 25.625 14.575V15.425C25.625 18.9953 25.625 20.7805 24.9301 22.1441C24.319 23.3437 23.3437 24.319 22.1441 24.9301C20.7805 25.625 18.9953 25.625 15.425 25.625H14.575C11.0047 25.625 9.21947 25.625 7.85581 24.9301C6.65627 24.319 5.68103 23.3437 5.06983 22.1441C4.375 20.7805 4.375 18.9953 4.375 15.425V14.575ZM14.575 6.5H15.425C17.2453 6.5 18.4826 6.50166 19.439 6.57979C20.3707 6.65591 20.8472 6.79388 21.1795 6.96322C21.9791 7.37069 22.6293 8.02085 23.0367 8.8205C23.2061 9.15285 23.3441 9.62927 23.4202 10.561C23.4983 11.5174 23.5 12.7547 23.5 14.575V15.425C23.5 17.2453 23.4983 18.4826 23.4202 19.439C23.3441 20.3707 23.2061 20.8472 23.0367 21.1795C22.6293 21.9791 21.9791 22.6293 21.1795 23.0367C20.8472 23.2061 20.3707 23.3441 19.439 23.4202C18.4826 23.4983 17.2453 23.5 15.425 23.5H14.575C12.7547 23.5 11.5174 23.4983 10.561 23.4202C9.62927 23.3441 9.15285 23.2061 8.8205 23.0367C8.02085 22.6293 7.37069 21.9791 6.96322 21.1795C6.79388 20.8472 6.65591 20.3707 6.57979 19.439C6.50166 18.4826 6.5 17.2453 6.5 15.425V14.575C6.5 12.7547 6.50166 11.5174 6.57979 10.561C6.65591 9.62927 6.79388 9.15285 6.96322 8.8205C7.37069 8.02085 8.02085 7.37069 8.8205 6.96322C9.15285 6.79388 9.62927 6.65591 10.561 6.57979C11.5174 6.50166 12.7547 6.5 14.575 6.5Z" fill="white"/>
</g>
<defs>
<radialGradient id="paint0_radial_127_153" cx="0" cy="0" r="1" gradientUnits="userSpaceOnUse" gradientTransform="translate(10.75 22.4375) rotate(-55.3758) scale(27.1146)">
<stop stop-color="#B13589"/>
<stop offset="0.79309" stop-color="#C62F94"/>
<stop offset="1" stop-color="#8A3AC8"/>
</radialGradient>
<radialGradient id="paint1_radial_127_153" cx="0" cy="0" r="1" gradientUnits="userSpaceOnUse" gradientTransform="translate(9.6875 30.9375) rotate(-65.1363) scale(24.0063)">
<stop stop-color="#E0E8B7"/>
<stop offset="0.444662" stop-color="#FB8A2E"/>
<stop offset="0.71474" stop-color="#E2425C"/>
<stop offset="1" stop-color="#E2425C" stop-opacity="0"/>
</radialGradient>
<radialGradient id="paint2_radial_127_153" cx="0" cy="0" r="1" gradientUnits="userSpaceOnUse" gradientTransform="translate(-1.46875 1.1875) rotate(-8.1301) scale(41.3216 8.83826)">
<stop offset="0.156701" stop-color="#406ADC"/>
<stop offset="0.467799" stop-color="#6A45BE"/>
<stop offset="1" stop-color="#6A45BE" stop-opacity="0"/>
</radialGradient>
<clipPath id="clip0_127_153">
<rect width="30" height="30" fill="white"/>
</clipPath>
</defs>
</svg>
