<svg width="25" height="28" viewBox="0 0 25 28" fill="none" xmlns="http://www.w3.org/2000/svg">
<g clip-path="url(#clip0_127_160)">
<path d="M10.6335 11.1504V10.072C10.23 10.0191 9.82363 9.99171 9.4167 9.99002C4.43991 9.99002 0.390137 13.7491 0.390137 18.3695C0.390137 21.2032 1.91639 23.7127 4.24382 25.2293C2.68537 23.6822 1.81835 21.643 1.81981 19.5247C1.81981 14.9704 5.75398 11.2563 10.6335 11.1504Z" fill="#00F2EA"/>
<path d="M10.8727 23.0523C12.977 23.0523 14.6927 21.4028 14.771 19.3462L14.7783 0.99229H18.1806C18.1078 0.60922 18.0708 0.220295 18.0701 -0.169525L13.424 -0.169525L13.416 18.1851C13.3384 20.2403 11.6212 21.8897 9.51766 21.8897C8.88657 21.8898 8.2649 21.7379 7.70605 21.4471C8.06819 21.944 8.54407 22.3487 9.09457 22.6277C9.64507 22.9068 10.2545 23.0523 10.8727 23.0523ZM24.5344 7.22226V6.20196C23.2854 6.20334 22.0628 5.84511 21.0151 5.17076C21.9347 6.21319 23.1687 6.93281 24.5344 7.22226Z" fill="#00F2EA"/>
<path d="M20.8768 5.43128C19.8551 4.28652 19.2909 2.81065 19.2906 1.28183H18.0489C18.2114 2.12772 18.546 2.9319 19.0322 3.64531C19.5184 4.35872 20.146 4.9664 20.8768 5.43128ZM9.40796 14.3913C7.25686 14.3942 5.51404 16.1046 5.51184 18.2156C5.51409 18.9154 5.71 19.6012 6.07822 20.1981C6.44644 20.7951 6.97284 21.2803 7.60002 21.6009C7.12144 20.9542 6.8631 20.1731 6.8625 19.3709C6.86469 17.2592 8.60752 15.548 10.7586 15.5458C11.161 15.5458 11.5452 15.6111 11.9088 15.7229V11.0785C11.5277 11.0254 11.1434 10.9977 10.7586 10.9958C10.6913 10.9958 10.6247 11.0002 10.5581 11.0009V14.5683C10.1859 14.4521 9.79817 14.3924 9.40796 14.3913Z" fill="#FF004F"/>
<path d="M23.9154 7.81296V11.3572C21.6041 11.3606 19.3496 10.6474 17.4672 9.3173V18.5821C17.4672 23.2097 13.6406 26.9746 8.93745 26.9746C7.11926 26.9746 5.43351 26.41 4.04846 25.4528C4.84804 26.2994 5.81447 26.9741 6.88781 27.435C7.96114 27.8959 9.1185 28.1331 10.2881 28.132C14.992 28.132 18.8186 24.3672 18.8186 19.7403V10.4748C20.7011 11.8046 22.9556 12.5175 25.2668 12.5139V7.95447C24.8126 7.95433 24.3596 7.9069 23.9154 7.81296Z" fill="#FF004F"/>
<path d="M17.9348 18.2773V8.99727C19.872 10.3329 22.1759 11.0462 24.5352 11.0408V7.49221C23.1479 7.20744 21.8887 6.49042 20.9412 5.44579C19.4252 4.49732 18.3789 2.99299 18.0467 1.28183H14.5735L14.5662 19.5799C14.4857 21.6292 12.7334 23.2736 10.5859 23.2736C9.30261 23.2721 8.09975 22.6771 7.35198 21.6742C6.03938 21.0117 5.21625 19.7032 5.21552 18.2766C5.21772 16.1576 7.00078 14.4413 9.2031 14.4384C9.61283 14.4384 10.0065 14.5037 10.3796 14.6162V11.0364C5.65964 11.1431 1.85352 14.868 1.85352 19.4355C1.85352 21.6452 2.74542 23.656 4.1985 25.1575C5.67405 26.1533 7.41833 26.6842 9.2031 26.6807C14.0175 26.6807 17.9348 22.9108 17.9348 18.2773Z" fill="white"/>
</g>
<defs>
<clipPath id="clip0_127_160">
<rect width="25" height="28" fill="white"/>
</clipPath>
</defs>
</svg>
